G04*
G04 #@! TF.GenerationSoftware,Altium Limited,Altium Designer,21.4.1 (30)*
G04*
G04 Layer_Physical_Order=1*
G04 Layer_Color=255*
%FSLAX24Y24*%
%MOIN*%
G70*
G04*
G04 #@! TF.SameCoordinates,857D4FEC-B229-424B-BB28-976D55463CAB*
G04*
G04*
G04 #@! TF.FilePolarity,Positive*
G04*
G01*
G75*
%ADD12C,0.0098*%
%ADD13R,0.0276X0.0236*%
%ADD14R,0.0071X0.0079*%
%ADD15R,0.0079X0.0157*%
%ADD16R,0.0157X0.0079*%
%ADD17R,0.0079X0.0071*%
%ADD18R,0.0118X0.0118*%
%ADD19R,0.0571X0.0394*%
%ADD20C,0.0118*%
%ADD21R,0.0236X0.0276*%
%ADD22R,0.0138X0.0098*%
%ADD23C,0.0040*%
%ADD24C,0.0050*%
%ADD25C,0.0080*%
%ADD26C,0.0100*%
%ADD27C,0.0060*%
%ADD28C,0.0070*%
%ADD29C,0.0090*%
%ADD30C,0.0095*%
%ADD31C,0.0088*%
%ADD32C,0.0090*%
%ADD33C,0.0085*%
%ADD34C,0.0105*%
D12*
X24766Y12884D02*
D03*
X24609D02*
D03*
X24451D02*
D03*
X24687Y13020D02*
D03*
X24530D02*
D03*
X24766Y13156D02*
D03*
X24609D02*
D03*
X24451D02*
D03*
X24373Y13293D02*
D03*
X24687D02*
D03*
X24530D02*
D03*
X24373Y13020D02*
D03*
D13*
X23950Y12830D02*
D03*
Y13260D02*
D03*
X25050Y12140D02*
D03*
X22970Y12290D02*
D03*
Y12717D02*
D03*
X25050Y13267D02*
D03*
Y12873D02*
D03*
Y12597D02*
D03*
D14*
X24172Y12010D02*
D03*
X24290D02*
D03*
X24630Y12000D02*
D03*
X24748D02*
D03*
X22922Y12090D02*
D03*
X23040D02*
D03*
Y11970D02*
D03*
X22922D02*
D03*
X22910Y12930D02*
D03*
X23028D02*
D03*
X24940Y11610D02*
D03*
X25058D02*
D03*
D15*
X24743Y12646D02*
D03*
X24546D02*
D03*
X24349D02*
D03*
X24546Y12174D02*
D03*
X24349D02*
D03*
X24743D02*
D03*
D16*
X24782Y12410D02*
D03*
X24310D02*
D03*
D17*
X23960Y12500D02*
D03*
Y12382D02*
D03*
X24180Y13018D02*
D03*
Y12900D02*
D03*
X23160Y12088D02*
D03*
Y11970D02*
D03*
X23960Y12150D02*
D03*
Y12268D02*
D03*
X24210Y13258D02*
D03*
Y13140D02*
D03*
X22920Y11570D02*
D03*
Y11688D02*
D03*
D18*
X24100Y12170D02*
D03*
Y12390D02*
D03*
D19*
X23450Y13170D02*
D03*
Y12510D02*
D03*
D20*
X23629Y12149D02*
D03*
Y11991D02*
D03*
X23471D02*
D03*
Y12149D02*
D03*
D21*
X23193Y11620D02*
D03*
X23587D02*
D03*
X24533Y11611D02*
D03*
X24139D02*
D03*
D22*
X22960Y13092D02*
D03*
Y13308D02*
D03*
D23*
X24433Y13436D02*
X24444Y13426D01*
Y13379D02*
Y13426D01*
X23448Y13140D02*
X23453Y13135D01*
X23470D02*
Y13150D01*
X23383Y13063D02*
X23470Y13150D01*
X23044Y12927D02*
X23124D01*
X23152Y12898D01*
X23201D01*
X23210Y12889D01*
X23028Y12930D02*
X23041D01*
X23044Y12927D01*
X24187Y12554D02*
Y12893D01*
Y12554D02*
X24195Y12547D01*
X24180Y12900D02*
X24187Y12893D01*
X24000Y13030D02*
X24006Y13024D01*
X24174D02*
X24180Y13018D01*
X24006Y13024D02*
X24174D01*
X23990Y12830D02*
X24010D01*
X23980Y12840D02*
X23990Y12830D01*
X24000Y12840D02*
Y13030D01*
X24567Y13209D02*
Y13240D01*
Y13209D02*
X24621Y13155D01*
X24534Y13273D02*
Y13296D01*
Y13273D02*
X24567Y13240D01*
X24932Y13169D02*
X25030Y13267D01*
X24932Y13149D02*
Y13169D01*
X25030Y13267D02*
X25050D01*
X24703Y13015D02*
X24798D01*
X24932Y13149D01*
X24780Y13157D02*
Y13165D01*
X24825Y13209D01*
Y13285D01*
X24818Y13292D02*
Y13378D01*
X24444Y13379D02*
X24526Y13296D01*
X24624Y13426D02*
X24633Y13416D01*
X24818Y13292D02*
X24825Y13285D01*
X24808Y13388D02*
X24818Y13378D01*
X24633Y13363D02*
X24701Y13295D01*
X24633Y13363D02*
Y13416D01*
X24223Y13420D02*
X24234D01*
X24368Y13286D02*
X24371D01*
X24234Y13420D02*
X24368Y13286D01*
X24526Y13296D02*
X24534D01*
X23960Y12500D02*
Y12800D01*
X23990Y12830D01*
X23810Y12080D02*
X23828D01*
X23882Y12135D01*
X23945D01*
X23721Y12179D02*
X23764Y12222D01*
X23780D01*
X24386Y13012D02*
Y13014D01*
X24329Y12954D02*
X24386Y13012D01*
X24329Y12821D02*
Y12954D01*
X24210Y13140D02*
X24219Y13149D01*
X24464D02*
X24465Y13150D01*
X24219Y13149D02*
X24464D01*
X24623Y12806D02*
Y12877D01*
Y12806D02*
X24743Y12686D01*
Y12646D02*
Y12686D01*
X24701Y13014D02*
X24703Y13015D01*
X24780Y12877D02*
X25046D01*
X25050Y12873D01*
X24600Y12460D02*
Y12464D01*
X24743Y12607D01*
X23332Y13308D02*
X23470Y13170D01*
X23462Y12785D02*
X23464Y12787D01*
X23905Y11910D02*
X24472D01*
X24748Y11996D02*
X24764Y11981D01*
X24823D02*
X24855Y11949D01*
X24869D01*
X24764Y11981D02*
X24823D01*
X24748Y11996D02*
Y12000D01*
X24424Y12015D02*
X24429Y12020D01*
X24156D02*
X24158Y12022D01*
X23970Y12020D02*
X24156D01*
X24295Y12015D02*
X24424D01*
X24290Y12010D02*
X24295Y12015D01*
X24158Y12022D02*
Y12022D01*
X24535Y11977D02*
Y12134D01*
X23650Y11991D02*
X23679Y12020D01*
X23629Y11991D02*
X23650D01*
X24472Y11915D02*
X24535Y11977D01*
X23945Y12135D02*
X23960Y12150D01*
X25016Y12174D02*
X25050Y12140D01*
X24743Y12174D02*
X25016D01*
X25050Y12360D02*
Y12597D01*
Y11810D02*
X25054Y11806D01*
Y11614D02*
X25058Y11610D01*
X24210Y13140D02*
X24221Y13129D01*
X24459Y12323D02*
X24633D01*
X24743Y12213D01*
X24753Y12203D01*
X24743Y12174D02*
Y12213D01*
X24630Y12000D02*
X24645Y12015D01*
Y12057D01*
X24703Y12115D01*
X24724D01*
X24743Y12134D01*
Y12174D01*
Y12607D02*
Y12646D01*
X24546Y12134D02*
Y12174D01*
X25001Y12646D02*
X25050Y12597D01*
X24094Y12386D02*
X24095Y12385D01*
X24100Y12390D02*
X24110Y12400D01*
X24300D01*
X24310Y12410D01*
X24346Y12170D02*
X24349Y12174D01*
X24100Y12170D02*
X24346D01*
X23960Y12268D02*
Y12382D01*
X23964Y12386D01*
X24094D01*
X24095Y12385D02*
X24100Y12390D01*
X23587Y11620D02*
X23629Y11662D01*
X23457Y12163D02*
X23471Y12149D01*
X23381Y12510D02*
X23470D01*
X23160Y12088D02*
X23168Y12096D01*
Y12297D01*
X23381Y12510D01*
X23629Y12149D02*
X23644Y12164D01*
X23360Y11971D02*
X23365Y11976D01*
X23456D02*
X23471Y11991D01*
X23365Y11976D02*
X23456D01*
X23244Y12088D02*
X23360Y11971D01*
X23160Y12088D02*
X23244D01*
X24130Y11620D02*
X24139Y11611D01*
X24533D02*
X24534Y11610D01*
X23143Y11570D02*
X23193Y11620D01*
X22920Y11570D02*
X23143D01*
X22917Y11691D02*
Y11817D01*
X22915Y11819D02*
X22917Y11817D01*
Y11691D02*
X22920Y11688D01*
X22970Y12290D02*
X23040Y12220D01*
X23160Y11970D02*
X23160Y11970D01*
X22922Y11970D02*
X22922Y11970D01*
X22922Y12090D02*
X22922Y12090D01*
X23040Y11970D02*
X23040Y11970D01*
X23990Y13247D02*
X24001Y13258D01*
X24210D01*
X23381Y12416D02*
X23404Y12439D01*
X22910Y12930D02*
X22911Y12931D01*
X22940Y13092D02*
X22960D01*
X22911Y13063D02*
X22940Y13092D01*
X22911Y12931D02*
Y13063D01*
D24*
X23457Y12780D02*
X23464Y12787D01*
X23033Y12780D02*
X23457D01*
X22970Y12717D02*
X23033Y12780D01*
D25*
X23700Y12840D02*
X23980D01*
X23646Y12156D02*
X23699D01*
X23721Y12179D01*
X23641Y12161D02*
X23646Y12156D01*
X22960Y13308D02*
X23332D01*
X23464Y12787D02*
X23466D01*
X23519Y12840D01*
X23470Y12889D02*
Y13135D01*
X23519Y12840D02*
X23700D01*
X23629Y11662D02*
Y11991D01*
X23470Y12889D02*
X23519Y12840D01*
X24534Y11610D02*
X24940D01*
X23587Y11620D02*
X24130D01*
D26*
X24195Y12547D02*
X24210Y12562D01*
Y12675D01*
X24339Y12667D02*
X24349Y12657D01*
X24265Y12667D02*
X24339D01*
X24210Y12675D02*
X24257D01*
X24349Y12646D02*
Y12657D01*
X24257Y12675D02*
X24265Y12667D01*
X22970Y12290D02*
Y12466D01*
D27*
X23819Y12001D02*
X23905Y11915D01*
X23810Y12080D02*
X23819Y12071D01*
Y12001D02*
Y12071D01*
X25054Y11614D02*
Y11806D01*
X24743Y12646D02*
X25001D01*
X23040Y12090D02*
Y12220D01*
Y11970D02*
X23160D01*
X22922D02*
Y12090D01*
D28*
X23679Y12020D02*
X23741D01*
X23801Y12080D01*
X23810D01*
D29*
X23352Y12163D02*
X23457D01*
D30*
X24433Y13436D02*
D03*
X23310Y12190D02*
D03*
X22950Y12500D02*
D03*
D31*
X23210Y12889D02*
D03*
D32*
X24000Y13030D02*
D03*
X24195Y12547D02*
D03*
X24808Y13388D02*
D03*
X24624Y13426D02*
D03*
X24223Y13420D02*
D03*
X24600Y12460D02*
D03*
X24869Y11949D02*
D03*
X23970Y12020D02*
D03*
X24429D02*
D03*
X25050Y11810D02*
D03*
Y12360D02*
D03*
X24459Y12323D02*
D03*
D33*
X24310Y12821D02*
D03*
D34*
X23780Y12222D02*
D03*
X23810Y12080D02*
D03*
X23700Y12840D02*
D03*
X22915Y11819D02*
D03*
M02*
