G04*
G04 #@! TF.GenerationSoftware,Altium Limited,Altium Designer,21.4.1 (30)*
G04*
G04 Layer_Physical_Order=2*
G04 Layer_Color=16711680*
%FSLAX24Y24*%
%MOIN*%
G70*
G04*
G04 #@! TF.SameCoordinates,857D4FEC-B229-424B-BB28-976D55463CAB*
G04*
G04*
G04 #@! TF.FilePolarity,Positive*
G04*
G01*
G75*
%ADD23C,0.0040*%
%ADD25C,0.0080*%
%ADD27C,0.0060*%
%ADD28C,0.0070*%
%ADD30C,0.0095*%
%ADD31C,0.0088*%
%ADD32C,0.0090*%
%ADD33C,0.0085*%
%ADD34C,0.0105*%
D23*
X24000Y13030D02*
X24013D01*
X24420Y13436D01*
X24433D01*
X23210Y12889D02*
X23741Y13420D01*
X24624Y13426D02*
X24630Y13420D01*
Y12797D02*
Y13420D01*
X23741Y13420D02*
X24223D01*
X24459Y12626D02*
X24630Y12797D01*
X24600Y12460D02*
X24675Y12385D01*
X24459Y12323D02*
Y12626D01*
X24675Y12266D02*
Y12385D01*
X24429Y12020D02*
X24675Y12266D01*
X24073Y11915D02*
X24681D01*
X24073D02*
Y11917D01*
D25*
X23958Y12289D02*
X24193Y12524D01*
Y12545D02*
X24195Y12547D01*
X24193Y12524D02*
Y12545D01*
X24800Y12697D02*
X24808Y12705D01*
Y13388D01*
X24800Y12034D02*
Y12697D01*
X22953Y12497D02*
X23003D01*
X23310Y12190D01*
X22950Y12500D02*
X22953Y12497D01*
X23609Y12080D02*
X23810D01*
X23780Y12222D02*
Y12530D01*
X23470Y12219D02*
X23609Y12080D01*
X23780Y12530D02*
X24071Y12821D01*
X24329D01*
X24792Y12026D02*
X24869Y11949D01*
X24681Y11915D02*
X24766Y12000D01*
X23470Y12219D02*
Y12610D01*
X23700Y12840D01*
X23970Y12020D02*
X24073Y11917D01*
X23958Y12030D02*
Y12289D01*
X22915Y11819D02*
Y12450D01*
D27*
X23593Y11908D02*
X23858D01*
X23310Y12190D02*
X23593Y11908D01*
X25050Y11810D02*
Y12360D01*
D28*
X23858Y11908D02*
X23970Y12020D01*
D30*
X24433Y13436D02*
D03*
X23310Y12190D02*
D03*
X22950Y12500D02*
D03*
D31*
X23210Y12889D02*
D03*
D32*
X24000Y13030D02*
D03*
X24195Y12547D02*
D03*
X24808Y13388D02*
D03*
X24624Y13426D02*
D03*
X24223Y13420D02*
D03*
X24600Y12460D02*
D03*
X24869Y11949D02*
D03*
X23970Y12020D02*
D03*
X24429D02*
D03*
X25050Y11810D02*
D03*
Y12360D02*
D03*
X24459Y12323D02*
D03*
D33*
X24310Y12821D02*
D03*
D34*
X23780Y12222D02*
D03*
X23810Y12080D02*
D03*
X23700Y12840D02*
D03*
X22915Y11819D02*
D03*
M02*
