G04*
G04 #@! TF.GenerationSoftware,Altium Limited,Altium Designer,21.4.1 (30)*
G04*
G04 Layer_Physical_Order=1*
G04 Layer_Color=255*
%FSLAX24Y24*%
%MOIN*%
G70*
G04*
G04 #@! TF.SameCoordinates,82B8B51B-D027-4046-A03C-4BB6B524CA78*
G04*
G04*
G04 #@! TF.FilePolarity,Positive*
G04*
G01*
G75*
%ADD10R,0.0276X0.0236*%
%ADD11R,0.0394X0.0571*%
%ADD12R,0.0071X0.0079*%
%ADD13R,0.0079X0.0071*%
%ADD14C,0.0047*%
%ADD15R,0.0098X0.0138*%
%ADD16R,0.0079X0.0157*%
%ADD17R,0.0157X0.0079*%
%ADD18C,0.0085*%
%ADD19C,0.0040*%
%ADD20C,0.0080*%
D10*
X67550Y10843D02*
D03*
Y11237D02*
D03*
X65650Y11197D02*
D03*
Y10803D02*
D03*
D11*
X66415Y10350D02*
D03*
X65785D02*
D03*
D12*
X66751Y10675D02*
D03*
X66869D02*
D03*
X66868Y10050D02*
D03*
X66750D02*
D03*
X66849Y10550D02*
D03*
X66731D02*
D03*
X66964D02*
D03*
X67082D02*
D03*
D13*
X65900Y10830D02*
D03*
Y10712D02*
D03*
Y11182D02*
D03*
Y11300D02*
D03*
X67100Y10191D02*
D03*
Y10309D02*
D03*
X65900Y10950D02*
D03*
Y11068D02*
D03*
X67200Y10668D02*
D03*
Y10550D02*
D03*
D14*
X66900Y11100D02*
D03*
X66743D02*
D03*
X67057D02*
D03*
X66821Y11236D02*
D03*
X66979D02*
D03*
X67136D02*
D03*
X66979Y10964D02*
D03*
X66821D02*
D03*
X67057Y10827D02*
D03*
X67136Y10964D02*
D03*
X66900Y10827D02*
D03*
X66743D02*
D03*
D15*
X66950Y10400D02*
D03*
X66733D02*
D03*
Y10200D02*
D03*
X66950D02*
D03*
D16*
X66504Y11246D02*
D03*
X66307D02*
D03*
X66111D02*
D03*
X66307Y10773D02*
D03*
X66111D02*
D03*
X66504D02*
D03*
D17*
X66544Y11009D02*
D03*
X66071D02*
D03*
D18*
X67550Y10630D02*
D03*
X67180Y10800D02*
D03*
X67188Y11057D02*
D03*
X66100Y10300D02*
D03*
X66619Y10888D02*
D03*
X66350Y10950D02*
D03*
X66150Y10750D02*
D03*
X66261Y11160D02*
D03*
X66865Y10172D02*
D03*
X67000Y10049D02*
D03*
X67098Y10427D02*
D03*
X66556Y11134D02*
D03*
X66642Y10755D02*
D03*
D19*
X67138Y11236D02*
X67550D01*
X67136D02*
X67138D01*
X67550D02*
X67550Y11237D01*
Y10630D02*
Y10843D01*
X67175Y11056D02*
X67188D01*
X65900Y10850D02*
X65993D01*
X67180Y10788D02*
Y10800D01*
Y10788D02*
X67200Y10768D01*
X66238Y10173D02*
X66415Y10350D01*
Y10373D01*
X67057Y11100D02*
X67059Y11099D01*
X67133D02*
X67175Y11056D01*
X67192Y11202D02*
X67294Y11101D01*
Y10294D02*
Y11101D01*
X67059Y11099D02*
X67133D01*
X65835Y10300D02*
X66100D01*
X65785Y10350D02*
X65835Y10300D01*
X66627Y10879D02*
X66689D01*
X66618Y10888D02*
X66627Y10879D01*
X66689D02*
X66741Y10827D01*
X65670Y11197D02*
X65768Y11295D01*
Y11320D01*
X65847Y11400D01*
X65650Y11197D02*
X65670D01*
X65847Y11400D02*
X65956D01*
X66350Y10950D02*
X66359Y10941D01*
X66341D02*
X66350Y10950D01*
X66261Y10941D02*
X66341D01*
X66050Y10908D02*
X66227D01*
X66376Y10941D02*
X66504Y10813D01*
X66227Y10908D02*
X66261Y10941D01*
X66359D02*
X66376D01*
X65807Y11020D02*
X65840Y11053D01*
X65885D02*
X65900Y11068D01*
X65840Y11053D02*
X65885D01*
X65534Y11020D02*
X65807D01*
X65900Y11068D02*
Y11182D01*
X66013Y11029D02*
Y11222D01*
X65915Y11285D02*
X65950D01*
X65900Y11300D02*
X65915Y11285D01*
X65950D02*
X66013Y11222D01*
Y11029D02*
X66032Y11009D01*
X65608Y10615D02*
X65785Y10439D01*
X65457Y10662D02*
Y10944D01*
X65785Y10350D02*
Y10439D01*
X65504Y10615D02*
X65608D01*
X65457Y10662D02*
X65504Y10615D01*
X65457Y10944D02*
X65534Y11020D01*
X65915Y10965D02*
X65988D01*
X66032Y11009D01*
X65900Y10950D02*
X65915Y10965D01*
X65650Y10803D02*
X65670D01*
X65807Y10940D01*
X65890D01*
X65900Y10950D01*
X66016Y10875D02*
X66050Y10908D01*
X66016Y10873D02*
Y10875D01*
X65993Y10850D02*
X66016Y10873D01*
X66111Y10791D02*
Y10813D01*
Y10773D02*
Y10791D01*
Y10751D02*
Y10773D01*
X65900Y10732D02*
X66091D01*
X66111Y10751D01*
X66258Y11157D02*
X66277D01*
X66374Y11089D02*
X66425D01*
X66277Y11157D02*
X66304Y11130D01*
X66333D02*
X66374Y11089D01*
X66304Y11130D02*
X66333D01*
X65956Y11400D02*
X66111Y11246D01*
X66922Y10172D02*
X66950Y10200D01*
X66838Y10212D02*
Y10292D01*
Y10212D02*
X66865Y10184D01*
X66872Y10172D02*
X66922D01*
X66865D02*
Y10184D01*
Y10165D02*
X66872Y10172D01*
X66805Y10324D02*
X66838Y10292D01*
X66258Y11157D02*
X66307Y11206D01*
X66504Y11009D02*
X66773D01*
X66425Y11089D02*
X66504Y11009D01*
X67200Y10668D02*
Y10768D01*
X67057Y10827D02*
X67135Y10905D01*
Y10962D01*
X67136Y10964D01*
X66985Y10754D02*
X67057Y10827D01*
X66985Y10675D02*
Y10754D01*
X66868Y10050D02*
X66869Y10049D01*
X66999D02*
X67000Y10049D01*
X66869Y10049D02*
X66999D01*
X67098Y10427D02*
X67100Y10429D01*
Y10507D01*
X66547Y11143D02*
X66556Y11134D01*
X66504Y11206D02*
X66547Y11163D01*
Y11143D02*
Y11163D01*
X66504Y11206D02*
Y11246D01*
X66509Y11250D02*
X66650D01*
X66504Y11246D02*
X66509Y11250D01*
X67006Y10324D02*
X67085D01*
X66950Y10380D02*
X67006Y10324D01*
X66950Y10380D02*
Y10400D01*
X67085Y10324D02*
X67100Y10309D01*
X66773Y11009D02*
X66819Y10964D01*
X66821D01*
X66979D01*
X67082Y10550D02*
X67096Y10564D01*
X67100Y10191D02*
X67108Y10199D01*
X67199D01*
X67294Y10294D01*
X67082Y10550D02*
X67200D01*
X67082D02*
X67097Y10535D01*
Y10510D02*
Y10535D01*
Y10510D02*
X67100Y10507D01*
X66733Y10380D02*
X66790Y10324D01*
X66805D01*
X67016Y10650D02*
X67066Y10600D01*
X67010Y10650D02*
X67016D01*
X67066Y10565D02*
X67082Y10550D01*
X67066Y10565D02*
Y10600D01*
X66985Y10675D02*
X67010Y10650D01*
X66842Y10675D02*
X66985D01*
X66685Y10724D02*
X66691D01*
X66711Y10705D02*
X66724D01*
X66691Y10724D02*
X66711Y10705D01*
X66654Y10755D02*
X66685Y10724D01*
X66642Y10755D02*
X66654D01*
X66504Y10773D02*
Y10813D01*
X67138Y11236D02*
X67172Y11202D01*
X67192D01*
X66307Y11206D02*
Y11246D01*
X66741Y10827D02*
X66743D01*
X65650Y10803D02*
X65721Y10732D01*
X66868Y10550D02*
X66964D01*
X66415Y10373D02*
X66592Y10550D01*
X66750D01*
X66733Y10380D02*
Y10400D01*
Y10070D02*
X66750Y10054D01*
X66733Y10070D02*
Y10200D01*
X66750Y10050D02*
Y10054D01*
X66662Y11250D02*
X66676Y11236D01*
X66821D01*
X66650Y11250D02*
X66662D01*
X66823Y11177D02*
Y11235D01*
X66821Y11236D02*
X66823Y11235D01*
Y11177D02*
X66900Y11100D01*
D20*
X66111Y10791D02*
X66150Y10751D01*
Y10750D02*
Y10751D01*
M02*
