M48
;Layer_Color=9474304
;FILE_FORMAT=2:4
INCH,LZ
;TYPE=PLATED
T1F00S00C0.0079
%
T01
X022915Y011819
X02295Y0125
X02321Y012889
X0237Y01284
X024Y01303
X02431Y012821
X024195Y012547
X024459Y012303
X0246Y012444
X024429Y01202
X02397
X02381Y01208
X02378Y012222
X02331Y01219
X02505Y012202
Y01173
X02481Y01189
X024808Y013388
X024624Y013426
X024433Y013436
X024223Y01342
M30
