G04*
G04 #@! TF.GenerationSoftware,Altium Limited,Altium Designer,21.4.1 (30)*
G04*
G04 Layer_Color=8421504*
%FSLAX24Y24*%
%MOIN*%
G70*
G04*
G04 #@! TF.SameCoordinates,9325BBC5-F430-4F0D-9170-647FE9FB1655*
G04*
G04*
G04 #@! TF.FilePolarity,Positive*
G04*
G01*
G75*
%ADD12R,0.0071X0.0079*%
%ADD13R,0.0200X0.0200*%
%ADD14R,0.0276X0.0236*%
%ADD15C,0.0098*%
%ADD16R,0.0079X0.0157*%
%ADD17R,0.0157X0.0079*%
%ADD18R,0.0079X0.0071*%
%ADD19R,0.0118X0.0118*%
%ADD20R,0.0571X0.0394*%
%ADD21C,0.0118*%
%ADD22R,0.0236X0.0276*%
%ADD23R,0.0138X0.0098*%
D12*
X24290Y11990D02*
D03*
X24172D02*
D03*
X24630Y11980D02*
D03*
X24748D02*
D03*
X22922Y12090D02*
D03*
X23040D02*
D03*
Y11970D02*
D03*
X22922D02*
D03*
X22910Y12930D02*
D03*
X23028D02*
D03*
X24940Y11610D02*
D03*
X25058D02*
D03*
D13*
X25060Y12660D02*
D03*
D14*
X25050Y12940D02*
D03*
Y13267D02*
D03*
X23950Y12830D02*
D03*
Y13260D02*
D03*
X25060Y11980D02*
D03*
X22970Y12290D02*
D03*
Y12717D02*
D03*
X25060Y12390D02*
D03*
D15*
X24766Y12884D02*
D03*
X24609D02*
D03*
X24451D02*
D03*
X24687Y13020D02*
D03*
X24530D02*
D03*
X24766Y13156D02*
D03*
X24609D02*
D03*
X24451D02*
D03*
X24373Y13293D02*
D03*
X24687D02*
D03*
X24530D02*
D03*
X24373Y13020D02*
D03*
D16*
X24743Y12626D02*
D03*
X24546D02*
D03*
X24349D02*
D03*
X24546Y12154D02*
D03*
X24349D02*
D03*
X24743D02*
D03*
D17*
X24782Y12390D02*
D03*
X24310D02*
D03*
D18*
X23960Y12500D02*
D03*
Y12382D02*
D03*
X24180Y13018D02*
D03*
Y12900D02*
D03*
X23160Y12088D02*
D03*
Y11970D02*
D03*
X23960Y12150D02*
D03*
Y12268D02*
D03*
X24210Y13258D02*
D03*
Y13140D02*
D03*
X22920Y11570D02*
D03*
Y11688D02*
D03*
D19*
X24100Y12170D02*
D03*
Y12390D02*
D03*
D20*
X23450Y13170D02*
D03*
Y12510D02*
D03*
D21*
X23629Y12149D02*
D03*
Y11991D02*
D03*
X23471D02*
D03*
Y12149D02*
D03*
D22*
X23193Y11620D02*
D03*
X23587D02*
D03*
X24533Y11611D02*
D03*
X24139D02*
D03*
D23*
X22960Y13092D02*
D03*
Y13308D02*
D03*
M02*
